# xmcd
#
# Track frame offsets: 
#        150
#        17795
#        36485
#        53147
#        70168
#        88357
#        105509
#        124377
#        144235
#        157573
#
# Disc length: 2344 seconds
#
# Revision: 1
# Processed by: cddbd v1.5.2PL0 Copyright (c) Steve Scherf et al.
# Submitted via: ExactAudioCopy v0.95b4
#
DISCID=8209260a
DTITLE=แดง จิตกร - ห่วงเจ้า...สาวโรงงาน
DYEAR=2008
DGENRE=Country
TTITLE0=ห่วงเจ้า...สาวโรงงาน
TTITLE1=ร้องไห้เถิดน้อง
TTITLE2=พี่แดงแถลงการณ์
TTITLE3=ฮัลโหลน้ำตาไหล
TTITLE4=ฮักสาวขอนแก่น
TTITLE5=ตังค์น้อยหลอยโทร
TTITLE6=หนุ่มนาลาแฟน
TTITLE7=ฝากรักกราบตักแม่
TTITLE8=อ.บ.ต.รอนาง
TTITLE9=ตัวไกลใจห่วง
EXTD=
EXTT0=
EXTT1=
EXTT2=
EXTT3=
EXTT4=
EXTT5=
EXTT6=
EXTT7=
EXTT8=
EXTT9=
PLAYORDER=
